<svg xmlns="http://www.w3.org/2000/svg" width="1024" height="1024" viewBox="0 0 128 128" fill="none">
  <rect width="128" height="128" fill="#f3f7fa"/>
  <g stroke="#153a59" stroke-width="3" stroke-linecap="round" stroke-linejoin="round">
    <path d="m23 64 27-9 28 10 27-9v39l-27 9-28-10-27 9Z" fill="#e8e3f1"/>
<path d="M50 55v39m28-29v39M34 82l29-8 29 10" fill="none" stroke="#8574a4"/>
<circle cx="34" cy="82" r="4" fill="#a66183"/><circle cx="63" cy="74" r="4" fill="white"/><circle cx="92" cy="84" r="4" fill="#a66183"/>
<path d="M72 20a19 19 0 1 0 19 26A20 20 0 0 1 72 20Z" fill="#f1e1e9" stroke="#a66183"/>
<path d="M39 22v10m-5-5h10M99 27v6m-3-3h6" stroke="#8574a4"/>
  </g>
</svg>
